HIERARCHY
ROOT hip
{
  OFFSET 0 0 0
  CHANNELS 6 Xposition Yposition Zposition Zrotation Yrotation Xrotation
  JOINT abdomen
  {
    OFFSET 0 20.6881 -0.73152
    CHANNELS 3 Zrotation Xrotation Yrotation
    JOINT chest
    {
      OFFSET 0 11.7043 -0.48768
      CHANNELS 3 Zrotation Xrotation Yrotation
      JOINT neck
      {
        OFFSET 0 22.1894 -2.19456
        CHANNELS 3 Zrotation Xrotation Yrotation
        JOINT head
        {
          OFFSET -0.24384 7.07133 1.2192
          CHANNELS 3 Zrotation Xrotation Yrotation
          JOINT leftEye
          {
            OFFSET 4.14528 8.04674 8.04672
            CHANNELS 3 Zrotation Xrotation Yrotation
            End Site
            {
              OFFSET 1 0 0
            }
          }
          JOINT rightEye
          {
            OFFSET -3.6576 8.04674 8.04672
            CHANNELS 3 Zrotation Xrotation Yrotation
            End Site
            {
              OFFSET 1 0 0
            }
          }
        }
      }
      JOINT rCollar
      {
        OFFSET -2.68224 19.2634 -4.8768
        CHANNELS 3 Zrotation Xrotation Yrotation
        JOINT rShldr
        {
          OFFSET -8.77824 -1.95073 1.46304
          CHANNELS 3 Zrotation Xrotation Yrotation
          JOINT rForeArm
          {
            OFFSET -28.1742 -1.7115 0.48768
            CHANNELS 3 Zrotation Xrotation Yrotation
            JOINT rHand
            {
              OFFSET -22.5879 0.773209 7.07136
              CHANNELS 3 Zrotation Xrotation Yrotation
              JOINT rThumb1
              {
                OFFSET -1.2192 -0.487915 3.41376
                CHANNELS 3 Zrotation Xrotation Yrotation
                JOINT rThumb2
                {
                  OFFSET -3.37035 -0.52449 3.41376
                  CHANNELS 3 Zrotation Xrotation Yrotation
                  End Site
                  {
                    OFFSET -1.78271 -1.18214 1.43049
                  }
                }
              }
              JOINT rIndex1
              {
                OFFSET -7.75947 0.938293 5.60832
                CHANNELS 3 Zrotation Xrotation Yrotation
                JOINT rIndex2
                {
                  OFFSET -2.54057 -0.884171 1.56538
                  CHANNELS 3 Zrotation Xrotation Yrotation
                  End Site
                  {
                    OFFSET -1.62519 -0.234802 1.16502
                  }
                }
              }
              JOINT rMid1
              {
                OFFSET -8.24714 1.18213 3.41376
                CHANNELS 3 Zrotation Xrotation Yrotation
                JOINT rMid2
                {
                  OFFSET -3.10165 -0.590103 1.0647
                  CHANNELS 3 Zrotation Xrotation Yrotation
                  End Site
                  {
                    OFFSET -2.48547 -0.328903 0.83742
                  }
                }
              }
              JOINT rRing1
              {
                OFFSET -8.82822 0.546677 1.51678
                CHANNELS 3 Zrotation Xrotation Yrotation
                JOINT rRing2
                {
                  OFFSET -2.60934 -0.819778 -0.0198488
                  CHANNELS 3 Zrotation Xrotation Yrotation
                  End Site
                  {
                    OFFSET -2.33842 -0.294052 0.168128
                  }
                }
              }
              JOINT rPinky1
              {
                OFFSET -8.27202 -0.0477905 -0.4584
                CHANNELS 3 Zrotation Xrotation Yrotation
                JOINT rPinky2
                {
                  OFFSET -1.82734 -0.647385 -0.700984
                  CHANNELS 3 Zrotation Xrotation Yrotation
                  End Site
                  {
                    OFFSET -1.69225 -0.51767 -0.607171
                  }
                }
              }
            }
          }
        }
      }
      JOINT lCollar
      {
        OFFSET 2.68224 19.2634 -4.8768
        CHANNELS 3 Zrotation Xrotation Yrotation
        JOINT lShldr
        {
          OFFSET 8.77824 -1.95073 1.46304
          CHANNELS 3 Zrotation Xrotation Yrotation
          JOINT lForeArm
          {
            OFFSET 28.1742 -1.7115 0.48768
            CHANNELS 3 Zrotation Xrotation Yrotation
            JOINT lHand
            {
              OFFSET 22.5879 0.773209 7.07136
              CHANNELS 3 Zrotation Xrotation Yrotation
              JOINT lThumb1
              {
                OFFSET 1.2192 -0.487915 3.41376
                CHANNELS 3 Zrotation Xrotation Yrotation
                JOINT lThumb2
                {
                  OFFSET 3.37035 -0.52449 3.41376
                  CHANNELS 3 Zrotation Xrotation Yrotation
                  End Site
                  {
                    OFFSET 1.78271 -1.18214 1.43049
                  }
                }
              }
              JOINT lIndex1
              {
                OFFSET 7.75947 0.938293 5.60832
                CHANNELS 3 Zrotation Xrotation Yrotation
                JOINT lIndex2
                {
                  OFFSET 2.54057 -0.884171 1.56538
                  CHANNELS 3 Zrotation Xrotation Yrotation
                  End Site
                  {
                    OFFSET 1.62519 -0.234802 1.16502
                  }
                }
              }
              JOINT lMid1
              {
                OFFSET 8.24714 1.18213 3.41376
                CHANNELS 3 Zrotation Xrotation Yrotation
                JOINT lMid2
                {
                  OFFSET 3.10165 -0.590103 1.0647
                  CHANNELS 3 Zrotation Xrotation Yrotation
                  End Site
                  {
                    OFFSET 2.48547 -0.328903 0.83742
                  }
                }
              }
              JOINT lRing1
              {
                OFFSET 8.82822 0.546677 1.51678
                CHANNELS 3 Zrotation Xrotation Yrotation
                JOINT lRing2
                {
                  OFFSET 2.60934 -0.819778 -0.0198488
                  CHANNELS 3 Zrotation Xrotation Yrotation
                  End Site
                  {
                    OFFSET 2.33842 -0.294052 0.168128
                  }
                }
              }
              JOINT lPinky1
              {
                OFFSET 8.27202 -0.0477905 -0.4584
                CHANNELS 3 Zrotation Xrotation Yrotation
                JOINT lPinky2
                {
                  OFFSET 1.82734 -0.647385 -0.700984
                  CHANNELS 3 Zrotation Xrotation Yrotation
                  End Site
                  {
                    OFFSET 1.69225 -0.51767 -0.607171
                  }
                }
              }
            }
          }
        }
      }
    }
  }
  JOINT rButtock
  {
    OFFSET -8.77824 4.35084 1.2192
    CHANNELS 3 Zrotation Xrotation Yrotation
    JOINT rThigh
    {
      OFFSET 0 -1.70687 -2.19456
      CHANNELS 3 Zrotation Xrotation Yrotation
      JOINT rShin
      {
        OFFSET 0 -36.8199 0.73152
        CHANNELS 3 Zrotation Xrotation Yrotation
        JOINT rFoot
        {
          OFFSET 0.73152 -45.1104 -5.12064
          CHANNELS 3 Zrotation Xrotation Yrotation
          End Site
          {
            OFFSET -1.1221 -3.69964 12.103
          }
        }
      }
    }
  }
  JOINT lButtock
  {
    OFFSET 8.77824 4.35084 1.2192
    CHANNELS 3 Zrotation Xrotation Yrotation
    JOINT lThigh
    {
      OFFSET 0 -1.70687 -2.19456
      CHANNELS 3 Zrotation Xrotation Yrotation
      JOINT lShin
      {
        OFFSET 0 -36.8199 0.73152
        CHANNELS 3 Zrotation Xrotation Yrotation
        JOINT lFoot
        {
          OFFSET -0.73152 -45.1104 -5.12064
          CHANNELS 3 Zrotation Xrotation Yrotation
          End Site
          {
            OFFSET 1.1221 -3.69964 12.103
          }
        }
      }
    }
  }
}
MOTION
Frames:	4
Frame Time:	0.00833333
-4.36896 84.023 10.3652 -187.384 -71.1693 -175.946 -2.92505 10.7936 6.92532 -0.430418 -6.02452 1.75764 -12.5378 -6.07869 -4.82017 14.7567 12.5368 -7.40359 -0.0 0.0 0.0 -0.0 0.0 0.0 5.27328e-14 -2.76462e-13 -1.71551e-13 80.223 16.8565 -2.0363 -14.5255 -7.38636 26.6175 -0.0389218 5.62197 0.792687 2.90967e-10 1.81012e-09 -3.03654e-10 5.024e-10 3.13385e-09 -5.274e-10 2.90972e-10 1.81012e-09 -3.0366e-10 7.73091 5.47488 0.417314 2.90966e-10 1.81012e-09 -3.03654e-10 2.90554 0.965183 0.102902 2.90974e-10 1.81012e-09 -3.03659e-10 10.2786 0.731801 0.0259123 2.90968e-10 1.81012e-09 -3.03654e-10 2.22167 -0.733487 -0.20892 5.26265e-14 -2.76457e-13 -1.71949e-13 -80.7951 20.8877 0.14518 14.2101 -7.12517 -25.9777 0.098968 8.93684 -1.26638 5.63623e-10 -5.08927e-10 -1.16318e-09 9.65618e-10 -8.80126e-10 -2.01794e-09 5.6362e-10 -5.08927e-10 -1.16317e-09 -7.73091 5.47488 -0.417314 5.63622e-10 -5.08929e-10 -1.16318e-09 -2.90554 0.965183 -0.102902 5.63619e-10 -5.0893e-10 -1.16319e-09 -10.2786 0.731801 -0.0259123 5.63635e-10 -5.08927e-10 -1.1632e-09 -2.22167 -0.733487 0.20892 -2.03217e-16 0.0 -3.88251e-19 -10.4393 -7.20715 -21.5195 -0.158494 30.0182 0.773824 -12.081 -8.29925 -41.5984 2.03217e-16 0.0 3.88251e-19 -4.50167 1.52702 5.79465 0.0157534 9.55089 -0.0723086 0.593025 1.12114 11.9998
-4.51757 84.0359 10.5529 -187.641 -71.7124 -175.734 -3.06981 10.8272 6.98274 -0.344125 -6.00018 1.7702 -12.6442 -6.08736 -4.81831 14.9189 12.6019 -7.38214 -0.0 0.0 0.0 -0.0 0.0 0.0 5.48247e-14 -3.80668e-13 -1.56394e-13 80.2679 17.1258 -2.05389 -14.5893 -7.43983 26.7474 -0.0390412 5.62587 0.793248 9.9297e-11 1.29982e-09 1.51539e-10 1.73649e-10 2.24885e-09 2.61397e-10 9.9303e-11 1.29982e-09 1.51532e-10 7.73091 5.47488 0.417314 9.92966e-11 1.29982e-09 1.5154e-10 2.90554 0.965183 0.102902 9.9306e-11 1.29982e-09 1.51531e-10 10.2786 0.731801 0.0259123 9.92972e-11 1.29982e-09 1.51535e-10 2.22167 -0.733487 -0.20892 5.47438e-14 -3.80664e-13 -1.56781e-13 -80.7911 20.8968 0.153196 14.1843 -7.10403 -25.9256 0.104936 9.15986 -1.29866 5.24321e-10 -5.11654e-10 -1.32366e-09 8.9594e-10 -8.84494e-10 -2.29487e-09 5.2432e-10 -5.11651e-10 -1.32366e-09 -7.73091 5.47488 -0.417314 5.24321e-10 -5.11653e-10 -1.32367e-09 -2.90554 0.965183 -0.102902 5.24317e-10 -5.11653e-10 -1.32367e-09 -10.2786 0.731801 -0.0259123 5.24329e-10 -5.11651e-10 -1.32368e-09 -2.22167 -0.733487 0.20892 -2.03217e-16 0.0 -3.88251e-19 -10.4887 -6.91369 -20.8893 -0.160463 30.0893 0.770466 -11.9908 -8.14358 -41.6637 2.03217e-16 0.0 3.88251e-19 -4.62236 1.79679 5.66888 0.0149452 9.23435 -0.0649294 0.55835 1.17781 11.502
-4.64953 84.0411 10.7052 -187.726 -72.3088 -175.671 -3.21165 10.8845 7.01441 -0.201735 -5.99516 1.77846 -12.8133 -6.09748 -4.81182 15.1829 12.696 -7.34529 -0.0 0.0 0.0 -0.0 0.0 0.0 6.51418e-14 -4.94173e-13 -2.1206e-13 80.3341 17.3627 -2.08135 -14.6501 -7.49116 26.8717 -0.040341 5.71663 0.806134 1.41436e-10 1.28497e-09 5.31043e-10 2.48562e-10 2.22269e-09 9.1754e-10 1.41444e-10 1.28497e-09 5.31034e-10 7.73091 5.47488 0.417314 1.41436e-10 1.28497e-09 5.31043e-10 2.90554 0.965183 0.102902 1.41447e-10 1.28497e-09 5.31032e-10 10.2786 0.731801 0.0259123 1.41434e-10 1.28497e-09 5.31033e-10 2.22167 -0.733487 -0.20892 6.51193e-14 -4.94171e-13 -2.12405e-13 -80.8006 20.9703 0.178311 14.1652 -7.0885 -25.8872 0.106426 9.2084 -1.30572 7.66744e-10 -6.25022e-10 -1.58905e-09 1.31284e-09 -1.08059e-09 -2.75507e-09 7.66745e-10 -6.25016e-10 -1.58905e-09 -7.73091 5.47488 -0.417314 7.66744e-10 -6.25017e-10 -1.58905e-09 -2.90554 0.965183 -0.102902 7.66739e-10 -6.25016e-10 -1.58905e-09 -10.2786 0.731801 -0.0259123 7.66745e-10 -6.25017e-10 -1.58906e-09 -2.22167 -0.733487 0.20892 -2.03217e-16 0.0 -3.88251e-19 -10.4167 -6.5714 -20.15 -0.163259 30.1447 0.758193 -11.7292 -7.77241 -41.7646 2.03217e-16 0.0 3.88251e-19 -4.65033 2.00088 5.51109 0.0146525 9.06378 -0.0587466 0.539917 1.19872 11.0015
-4.8038 84.0504 10.8575 -187.881 -72.9597 -175.618 -3.33474 10.9237 7.02395 -0.0675406 -5.9885 1.78065 -12.981 -6.10097 -4.79828 15.4456 12.794 -7.29767 -0.0 0.0 0.0 -0.0 0.0 0.0 7.45517e-14 -5.76019e-13 -2.78494e-13 80.4143 17.549 -2.11216 -14.7096 -7.54153 26.9931 -0.0424236 5.86316 0.82694 2.52462e-10 1.39373e-09 8.2247e-10 4.41978e-10 2.41098e-09 1.42087e-09 2.52471e-10 1.39373e-09 8.2246e-10 7.73091 5.47488 0.417314 2.52462e-10 1.39372e-09 8.2247e-10 2.90554 0.965183 0.102902 2.52475e-10 1.39372e-09 8.22456e-10 10.2786 0.731801 0.0259123 2.52457e-10 1.39373e-09 8.22455e-10 2.22167 -0.733487 -0.20892 7.45863e-14 -5.76018e-13 -2.78786e-13 -80.8157 21.1054 0.214165 14.1491 -7.07546 -25.8547 0.103328 9.08742 -1.28822 1.0638e-09 -7.38179e-10 -1.79991e-09 1.82481e-09 -1.2765e-09 -3.12132e-09 1.06381e-09 -7.38171e-10 -1.79991e-09 -7.73091 5.47488 -0.417314 1.0638e-09 -7.38171e-10 -1.79991e-09 -2.90554 0.965183 -0.102902 1.0638e-09 -7.38169e-10 -1.79991e-09 -10.2786 0.731801 -0.0259123 1.0638e-09 -7.38172e-10 -1.79991e-09 -2.22167 -0.733487 0.20892 -2.03217e-16 0.0 -3.88251e-19 -10.3501 -6.23729 -19.4199 -0.166773 30.2183 0.742577 -11.3778 -7.33831 -41.778 2.03217e-16 0.0 3.88251e-19 -4.67296 2.18795 5.34388 0.0142667 8.90098 -0.0525421 0.524246 1.21405 10.5001
